<?xml version="1.0" standalone="no"?>
<!DOCTYPE svg PUBLIC "-//W3C//DTD SVG 20010904//EN"
 "http://www.w3.org/TR/2001/REC-SVG-20010904/DTD/svg10.dtd">
<svg version="1.0" xmlns="http://www.w3.org/2000/svg"
 width="1140.000000pt" height="1140.000000pt" viewBox="0 0 1140.000000 1140.000000"
 preserveAspectRatio="xMidYMid meet">
<metadata>
Created by potrace 1.14, written by Peter Selinger 2001-2017
</metadata>
<g transform="translate(0.000000,1140.000000) scale(0.100000,-0.100000)"
fill="#000000" stroke="none">
<path d="M4946 8853 c-3 -3 -23 -6 -44 -8 -22 -1 -43 -4 -48 -7 -9 -6 -87 -29
-113 -34 -27 -5 -169 -69 -240 -109 -13 -7 -44 -32 -67 -54 -46 -43 -50 -44
-124 -41 -25 1 -64 2 -87 3 -24 1 -43 4 -43 7 0 7 -65 5 -120 -5 -45 -8 -73
-20 -98 -42 -7 -7 -17 -13 -22 -13 -8 0 -64 -47 -112 -92 -10 -10 -22 -18 -27
-18 -5 0 -12 -7 -15 -16 -3 -8 -10 -13 -15 -10 -5 4 -11 2 -13 -2 -3 -8 -134
-78 -153 -82 -5 -1 -28 -11 -50 -21 -74 -34 -194 -77 -199 -71 -3 3 -6 0 -6
-6 0 -6 -14 -14 -32 -17 -18 -4 -53 -16 -78 -27 -25 -11 -53 -21 -63 -23 -15
-3 -85 -43 -187 -105 -85 -51 -268 -156 -277 -158 -7 -2 -13 -8 -13 -13 0 -6
-4 -8 -9 -5 -5 4 -11 2 -13 -3 -6 -17 -300 -231 -394 -287 -53 -32 -109 -70
-125 -85 -16 -15 -29 -25 -29 -23 0 3 -15 -10 -34 -28 -19 -18 -58 -56 -88
-85 -75 -71 -154 -159 -191 -213 -17 -25 -34 -47 -37 -50 -4 -3 -24 -41 -46
-84 -35 -72 -39 -89 -41 -164 -2 -78 -11 -124 -33 -177 -41 -98 -61 -151 -60
-159 1 -5 -3 -12 -10 -16 -6 -4 -12 -17 -13 -28 -1 -12 -6 -22 -11 -22 -5 0
-7 -3 -4 -6 4 -3 2 -20 -3 -37 -11 -38 -38 -167 -45 -217 -3 -19 -7 -46 -10
-60 -6 -29 -6 -22 1 -130 3 -47 7 -121 10 -165 10 -166 14 -206 26 -242 13
-42 64 -140 112 -217 66 -105 87 -162 137 -375 44 -188 91 -296 157 -365 32
-33 93 -68 111 -64 16 3 173 -46 197 -62 19 -13 100 -33 145 -36 25 -2 45 -4
45 -5 0 -2 98 -7 290 -13 235 -9 274 -13 330 -41 71 -34 122 -78 223 -190 34
-37 122 -155 122 -162 0 -5 10 -20 23 -35 12 -14 29 -36 37 -48 29 -44 109
-155 120 -167 5 -7 10 -15 10 -18 0 -3 11 -16 25 -29 14 -13 25 -28 25 -35 0
-14 27 -15 35 -1 9 15 25 2 19 -15 -4 -10 5 -16 33 -20 35 -7 104 -22 128 -29
6 -1 44 -18 85 -38 63 -29 207 -84 245 -93 6 -1 17 -5 25 -8 13 -5 30 -9 90
-24 8 -2 26 -5 40 -8 14 -2 25 -4 25 -5 0 -1 43 -4 95 -6 52 -2 102 -5 110 -7
8 -2 33 -9 55 -15 60 -17 104 -17 165 2 30 9 57 15 60 14 3 -1 16 4 28 11 25
13 235 17 347 7 33 -3 85 -8 115 -11 30 -2 69 -6 85 -9 17 -2 55 -7 85 -10 30
-4 82 -12 115 -18 33 -5 69 -11 80 -13 57 -8 105 -16 133 -24 17 -5 33 -7 36
-3 3 3 6 0 6 -7 0 -7 5 -9 10 -6 6 3 25 2 43 -4 84 -27 143 -45 150 -47 4 -1
9 -3 12 -4 3 -1 8 -3 13 -5 40 -11 255 -116 260 -127 2 -5 10 -8 18 -8 8 0 14
-4 14 -9 0 -5 8 -11 18 -14 17 -6 72 -37 82 -47 11 -11 69 -50 75 -50 10 0
190 -144 243 -194 68 -66 89 -100 95 -158 6 -56 38 -105 73 -114 37 -10 99 1
128 22 14 11 38 43 52 71 27 55 33 123 21 238 -11 93 -23 133 -70 228 -39 78
-39 81 -34 165 6 106 18 119 98 115 30 -1 63 -4 74 -7 11 -2 25 -5 32 -5 6 -1
18 -7 25 -13 7 -7 33 -20 58 -29 110 -39 303 17 545 157 28 16 62 36 78 43 15
8 27 18 27 21 0 4 14 13 30 20 17 7 30 16 30 21 0 5 6 9 13 9 7 0 23 9 35 20
12 11 24 20 27 20 3 0 11 5 18 10 7 6 46 35 87 65 41 30 82 61 91 70 9 8 18
15 22 15 20 0 72 62 142 169 68 103 306 422 345 461 8 8 42 37 74 63 32 26 66
58 76 70 18 24 43 87 33 87 -18 0 23 29 59 41 75 24 105 70 119 180 10 85 32
128 109 224 29 37 31 44 26 95 -4 30 -9 69 -12 85 -3 17 -7 48 -10 70 -10 91
-22 183 -28 215 -3 14 -7 45 -10 70 -3 25 -8 56 -10 70 -3 14 -7 41 -10 60 -3
19 -8 46 -11 60 -3 14 -7 40 -10 59 -2 18 -7 42 -11 53 -3 11 -8 30 -9 41 -10
60 -18 94 -26 110 -5 9 -8 17 -5 17 2 0 0 16 -6 36 -5 20 -11 44 -13 53 -22
107 -90 336 -105 356 -5 6 -8 14 -8 18 0 16 -27 74 -59 125 -18 29 -33 55 -33
57 0 6 -70 104 -158 223 -34 46 -62 90 -62 98 0 8 -4 14 -10 14 -5 0 -10 7
-10 15 0 8 -5 15 -12 15 -6 0 -8 3 -5 7 4 3 1 13 -6 22 -7 9 -33 50 -57 91
-24 41 -46 77 -49 80 -3 3 -12 17 -20 33 -8 15 -18 27 -23 27 -4 0 -8 6 -8 13
0 6 -15 30 -33 52 -43 53 -252 260 -312 310 -27 22 -67 57 -90 77 -23 20 -70
60 -104 87 -35 28 -90 74 -124 103 -33 29 -82 72 -108 95 -85 73 -152 120
-234 162 -44 23 -85 46 -92 51 -7 6 -14 10 -16 10 -3 0 -22 8 -43 17 -22 9
-41 17 -44 18 -3 0 -15 6 -26 13 -12 6 -24 8 -28 5 -3 -3 -6 -1 -6 5 0 7 -3
11 -7 10 -5 -1 -39 9 -78 22 -85 29 -93 31 -127 32 -16 1 -28 4 -28 7 0 3 -33
6 -73 7 -70 0 -75 2 -151 52 -43 29 -97 57 -120 63 -39 11 -169 23 -211 19
-11 -1 -24 -1 -30 -1 -24 -1 -106 14 -175 32 -41 11 -86 22 -100 25 -14 3 -43
10 -65 16 -22 6 -134 12 -250 14 -264 4 -370 9 -384 18 -6 4 -11 2 -11 -4 0
-6 -5 -8 -10 -5 -6 4 -39 9 -73 11 -34 2 -80 6 -102 8 -22 3 -67 8 -100 11
-33 3 -65 11 -72 17 -7 6 -13 8 -13 4 0 -3 -12 -1 -27 5 -51 20 -146 33 -157
22z m154 -143 c122 -35 350 -53 825 -65 99 -3 198 -9 220 -15 22 -6 47 -13 55
-15 8 -2 15 -4 15 -5 0 -1 9 -3 20 -5 11 -2 38 -8 60 -14 22 -5 49 -12 61 -14
44 -11 131 -19 204 -19 84 0 157 -14 181 -34 8 -8 21 -14 27 -14 7 0 12 -4 12
-8 0 -5 11 -14 25 -20 14 -6 25 -18 25 -25 0 -13 -35 -60 -72 -99 -10 -10 -18
-22 -18 -26 0 -5 -11 -18 -25 -30 -14 -12 -25 -19 -25 -16 0 13 -61 -32 -66
-49 -9 -29 -11 -28 -364 103 -47 17 -89 33 -95 34 -14 4 -46 16 -70 26 -11 5
-62 24 -114 42 -79 27 -98 38 -113 65 -38 64 -71 72 -218 60 -41 -4 -100 -9
-130 -12 -30 -2 -86 -7 -125 -10 -38 -4 -95 -8 -125 -10 -30 -3 -80 -7 -110
-10 -140 -12 -220 -18 -277 -19 -35 0 -63 -3 -63 -6 0 -3 -30 -7 -67 -9 -59
-3 -125 -7 -144 -10 -3 -1 -23 -12 -44 -26 -29 -20 -40 -23 -51 -14 -8 6 -12
15 -9 19 2 4 -2 16 -10 26 -20 27 -19 29 22 69 31 30 199 121 238 130 6 1 30
7 55 14 148 42 178 44 290 11z m-875 -225 c86 -8 152 -9 174 -3 16 4 86 -118
102 -179 13 -48 57 -100 93 -109 21 -5 30 -20 52 -87 14 -45 28 -89 30 -97 2
-8 9 -35 15 -59 12 -42 11 -45 -15 -68 -23 -19 -31 -21 -49 -11 -12 6 -24 11
-27 10 -8 -2 -52 9 -80 19 -14 5 -36 12 -50 15 -14 3 -29 6 -35 8 -5 2 -31 9
-58 16 -54 14 -66 26 -43 43 25 19 44 88 39 137 -7 58 -45 107 -106 136 -46
21 -51 27 -98 124 -52 108 -56 122 -36 115 6 -2 48 -7 92 -10z m1403 0 c-3 -3
-17 -8 -32 -10 -14 -3 -38 -7 -53 -10 -16 -3 -46 -8 -68 -11 -22 -4 -47 -10
-56 -15 -10 -5 -20 -4 -27 3 -7 7 -12 8 -12 2 0 -5 -14 -11 -31 -12 -17 -1
-45 -9 -63 -16 -39 -16 -106 -80 -106 -101 0 -8 -4 -15 -8 -15 -5 0 -9 -6 -10
-12 -1 -7 -3 -29 -6 -48 -2 -19 -7 -73 -11 -120 -4 -47 -9 -98 -10 -115 -2
-16 -5 -49 -6 -73 -1 -24 -6 -45 -10 -48 -5 -2 -4 -16 1 -30 8 -19 6 -28 -10
-44 -11 -11 -24 -20 -30 -20 -5 0 -19 -9 -30 -20 -20 -20 -20 -20 -35 10 -9
17 -13 30 -9 30 4 0 2 6 -3 13 -5 6 -18 35 -28 62 -9 28 -23 64 -30 80 -7 17
-27 68 -45 115 -18 47 -38 99 -46 117 -8 17 -14 33 -14 36 0 3 -5 18 -12 34
-6 15 -12 30 -13 33 0 3 -7 23 -14 45 -7 22 -14 45 -15 50 -2 6 -5 14 -7 19
-2 6 7 11 21 12 59 4 180 14 240 19 70 6 120 10 245 20 44 4 96 8 115 10 19 2
76 7 125 10 50 4 92 9 94 11 7 6 15 -5 9 -11z m-1558 -62 c14 -26 24 -51 23
-55 -2 -4 2 -8 7 -8 6 0 9 -3 8 -7 -1 -5 8 -27 20 -50 18 -34 19 -43 8 -43
-20 0 -96 -73 -96 -92 0 -9 -4 -19 -8 -22 -13 -8 -6 -100 9 -128 15 -28 65
-78 79 -78 5 0 10 -4 10 -10 0 -12 -37 -7 -155 20 -106 24 -121 29 -121 47 -1
33 -20 207 -30 270 -4 30 0 38 38 68 67 53 117 94 138 113 14 12 29 22 35 22
5 0 21 -21 35 -47z m3020 -9 c36 -6 147 -41 165 -52 5 -4 16 -7 24 -9 21 -3
251 -116 251 -123 0 -7 -165 -73 -189 -75 -38 -3 -97 -48 -120 -93 -14 -26
-22 -25 -108 14 -28 13 -54 24 -57 24 -3 0 -33 13 -65 29 -33 16 -62 26 -65
23 -4 -3 -6 0 -6 6 0 7 -3 11 -7 11 -5 -1 -11 0 -15 1 -5 1 -13 3 -20 4 -7 0
-23 17 -35 36 -13 19 -30 43 -39 53 -18 22 -19 21 68 121 15 17 28 34 28 38 0
8 124 2 190 -8z m-1434 -18 c8 -8 14 -19 14 -23 0 -13 66 -43 95 -43 13 0 36
-5 50 -10 15 -6 46 -12 68 -15 23 -2 44 -4 46 -4 2 -1 -4 -12 -13 -26 -9 -14
-14 -25 -10 -25 4 0 1 -7 -6 -14 -8 -10 -24 -13 -48 -10 -20 2 -68 7 -107 10
-62 5 -109 9 -154 13 -8 0 -12 4 -8 7 8 8 -17 57 -50 102 -13 17 -20 32 -16
32 23 1 89 13 92 16 9 9 33 3 47 -10z m292 -17 c60 -17 52 -29 -9 -13 -29 8
-55 11 -59 9 -4 -3 -10 2 -13 9 -7 17 13 27 28 16 6 -5 29 -14 53 -21z m257
-93 c6 -1 27 -10 49 -19 21 -9 44 -17 52 -17 7 0 16 -4 19 -10 3 -5 15 -10 26
-10 10 0 27 -4 37 -9 9 -5 44 -19 77 -31 33 -12 69 -26 80 -30 11 -5 28 -11
37 -13 9 -3 24 -21 33 -40 9 -19 27 -39 41 -46 23 -10 25 -15 20 -64 -11 -119
-30 -229 -40 -232 -119 -32 -191 -98 -221 -203 -5 -17 -12 -21 -25 -17 -10 3
-27 8 -37 10 -10 3 -38 9 -63 16 -25 6 -52 12 -60 14 -8 2 -53 13 -100 25 -47
12 -89 23 -95 25 -25 6 -42 17 -42 28 -1 18 -7 41 -13 47 -3 3 -13 17 -23 33
-10 15 -33 37 -52 50 -19 12 -35 25 -35 29 0 3 26 33 58 66 31 32 71 75 88 94
18 20 52 45 77 56 25 11 55 30 66 41 20 20 46 69 43 82 -1 3 -2 25 -3 48 -2
22 -5 41 -8 41 -4 0 -11 12 -18 26 -11 23 -10 25 5 19 9 -4 22 -8 27 -9z
m-2449 -44 c7 -41 21 -156 26 -201 0 -3 0 -16 -1 -28 -1 -20 -4 -21 -26 -13
-14 5 -25 7 -25 4 0 -3 -6 -2 -12 3 -7 4 -22 9 -32 10 -11 2 -48 10 -83 18
-35 8 -75 17 -91 20 -15 3 -61 14 -102 23 l-75 18 40 14 c22 7 42 12 44 11 2
-2 7 1 10 6 3 4 24 14 46 22 53 18 247 102 259 113 12 9 19 3 22 -20z m1048
-107 c35 -90 39 -100 40 -107 1 -3 4 -10 9 -14 4 -4 7 -14 7 -21 0 -8 8 -33
19 -56 10 -23 31 -76 46 -117 15 -41 31 -84 36 -95 19 -42 38 -105 32 -105 -3
0 0 -7 7 -15 16 -19 -5 -21 -24 -2 -20 19 -138 121 -148 128 -6 4 -4 19 6 37
9 17 16 40 16 51 0 24 -20 71 -30 71 -13 0 -60 52 -55 61 3 4 1 16 -5 26 -21
37 -71 236 -55 221 4 -4 19 2 34 13 l26 20 11 -28 c7 -15 19 -46 28 -68z m933
33 c24 -2 43 -5 43 -8 0 -3 21 -4 47 -4 60 2 70 -2 77 -31 3 -12 21 -36 40
-53 l34 -30 -102 -108 c-76 -80 -110 -109 -132 -111 -16 -3 -31 -8 -32 -14 -2
-5 -8 -7 -13 -4 -5 3 -30 -15 -56 -41 -36 -37 -49 -44 -55 -33 -78 131 -158
272 -156 274 2 1 22 12 45 25 43 24 83 72 102 121 9 25 13 27 63 23 29 -2 72
-5 95 -6z m1899 -3 c4 -8 10 -15 16 -15 5 0 19 -10 32 -22 13 -13 42 -39 65
-58 24 -19 57 -48 74 -63 18 -16 69 -58 115 -95 45 -36 82 -69 82 -74 0 -4 5
-8 11 -8 6 0 16 -6 23 -12 12 -12 124 -113 178 -160 13 -11 22 -25 20 -32 -2
-6 0 -8 3 -4 7 7 85 -63 85 -76 0 -4 -4 -5 -8 -2 -5 3 -44 7 -88 11 -43 3 -95
7 -114 9 -54 7 -149 16 -210 21 -97 8 -165 16 -182 21 -9 3 -34 0 -55 -5 -52
-14 -58 -14 -60 6 -1 10 -16 97 -33 193 -17 96 -33 190 -36 208 -5 38 -21 69
-51 98 l-22 22 57 25 c66 30 90 33 98 12z m-728 -76 c73 -33 120 -53 213 -93
76 -33 87 -41 93 -67 7 -35 59 -91 101 -107 l30 -12 0 -240 c0 -132 -2 -241
-5 -241 -15 -5 -191 72 -210 91 -3 3 -44 25 -91 50 -84 43 -87 45 -99 92 -23
90 -86 155 -192 196 -28 11 -29 20 -15 127 3 22 9 64 12 93 4 29 14 58 22 65
8 7 27 24 42 38 33 33 40 34 99 8z m-1652 -54 c20 -14 44 -25 53 -25 29 0 55
-26 81 -79 14 -28 28 -51 33 -51 4 0 7 -4 7 -9 0 -6 34 -68 74 -138 41 -71 77
-142 80 -159 16 -88 88 -154 181 -167 85 -13 185 47 220 129 13 31 18 35 37
29 13 -3 39 -10 58 -15 19 -5 44 -11 55 -13 11 -3 61 -15 110 -27 50 -12 97
-25 105 -28 16 -6 28 -9 48 -11 6 0 12 -10 12 -22 0 -25 41 -119 52 -119 5 0
8 -6 8 -14 0 -10 -8 -13 -24 -10 -21 3 -86 8 -296 19 -36 2 -108 7 -160 10
-134 10 -168 8 -204 -14 -36 -23 -67 -57 -59 -65 11 -10 -12 -7 -40 7 -15 6
-27 15 -27 20 0 4 -4 7 -9 7 -8 0 -319 173 -389 217 l-23 14 25 26 c23 23 40
75 40 123 0 32 -38 91 -73 112 -41 25 -52 38 -44 52 4 5 8 35 10 65 2 31 5 70
7 86 2 17 4 40 5 53 1 28 2 27 47 -3z m-1971 1 c17 -4 37 -9 45 -11 8 -2 30
-7 49 -10 19 -3 37 -8 41 -10 4 -2 21 -7 39 -10 17 -3 60 -12 94 -21 34 -8 76
-17 92 -20 17 -3 48 -10 70 -16 55 -16 53 -15 70 -17 8 0 14 -4 13 -8 -1 -5 1
-33 5 -63 4 -30 10 -82 13 -115 10 -103 11 -110 34 -158 24 -51 80 -102 124
-113 15 -3 30 -13 33 -21 4 -11 -14 -76 -44 -153 -8 -20 -14 -42 -15 -57 -1
-7 -15 -17 -32 -23 -17 -7 -40 -15 -51 -20 -53 -20 -125 -109 -125 -155 0 -8
-5 -15 -11 -15 -5 0 -8 -4 -5 -8 2 -4 -3 -8 -12 -9 -63 -5 -120 -12 -137 -16
-11 -3 -45 -8 -75 -12 -30 -4 -63 -9 -73 -11 -12 -2 -35 14 -62 41 -41 43 -42
46 -35 87 5 24 9 44 9 46 1 1 1 18 1 37 0 19 3 34 8 33 16 -5 89 32 113 59 52
56 69 154 41 226 -14 33 -61 81 -100 101 -65 34 -174 20 -223 -27 -31 -30 -64
-71 -60 -75 1 -1 -2 -15 -7 -31 -7 -20 -19 -30 -39 -34 -48 -9 -88 -17 -99
-21 -6 -2 -11 1 -12 7 -4 46 -21 74 -55 95 -21 12 -37 32 -45 58 -7 21 -17 48
-22 59 -5 11 -21 53 -36 94 l-27 74 24 18 c13 10 33 22 44 25 11 4 22 10 25
14 3 4 23 17 45 29 22 11 96 54 165 95 125 74 134 77 205 62z m925 -122 c14
-3 39 -9 55 -15 32 -10 310 -88 335 -94 8 -2 22 -5 30 -7 8 -1 25 -18 38 -35
12 -18 28 -33 35 -33 19 0 91 -56 217 -170 15 -14 64 -54 108 -90 44 -36 81
-71 81 -78 1 -7 -2 -11 -7 -8 -23 14 -154 -118 -145 -146 1 -3 -3 -11 -11 -17
-13 -11 -16 -9 -106 64 -20 17 -54 43 -74 59 -37 29 -37 29 -18 50 84 92 28
223 -98 235 -19 1 -39 6 -45 10 -5 4 -23 8 -40 10 -16 2 -38 7 -47 12 -9 5
-28 9 -42 9 -14 0 -26 4 -26 8 0 4 -10 8 -22 9 -54 4 -120 26 -125 42 -16 53
-40 99 -64 121 -34 33 -73 65 -76 62 -8 -6 -23 0 -23 9 0 7 9 9 23 5 12 -4 33
-9 47 -12z m-290 -23 c0 -8 -33 -41 -42 -41 -4 0 -8 11 -8 24 0 19 5 24 25 22
14 0 25 -3 25 -5z m3594 -68 c3 -18 8 -48 11 -65 3 -18 10 -55 15 -83 11 -60
17 -96 25 -150 11 -83 28 -126 61 -158 l34 -33 -47 -106 c-40 -89 -53 -109
-77 -117 -38 -14 -71 -52 -87 -98 -10 -32 -52 -106 -69 -123 -3 -3 -11 -17
-19 -32 -24 -47 -65 -89 -88 -91 -13 -1 -23 -5 -23 -9 0 -4 -5 -8 -12 -8 -6 0
-25 -16 -42 -35 l-32 -35 -52 55 c-29 30 -49 55 -44 55 6 0 19 19 30 43 27 55
167 199 212 217 48 18 70 39 89 81 14 31 16 81 16 358 -1 216 3 321 10 322 5
0 26 11 45 23 19 13 36 23 37 22 0 0 4 -16 7 -33z m-4788 -91 c0 -4 4 -14 7
-22 13 -28 58 -155 61 -167 1 -7 5 -15 8 -19 4 -3 -6 -17 -23 -31 -16 -14 -27
-29 -24 -33 3 -5 0 -10 -6 -12 -8 -3 -10 -18 -5 -48 13 -77 85 -113 168 -84
20 7 49 15 65 18 15 2 51 11 79 18 l50 14 20 -44 c15 -35 89 -112 101 -105 1
1 12 -1 23 -4 20 -5 21 -10 15 -79 -7 -89 -11 -101 -36 -109 -10 -4 -33 -26
-49 -51 -17 -24 -34 -43 -38 -41 -6 1 -91 -27 -152 -50 -8 -3 -19 -7 -25 -8
-5 -2 -35 -13 -65 -25 -30 -12 -55 -21 -55 -20 0 2 -16 -4 -85 -28 -95 -33
-109 -35 -105 -12 2 11 -1 22 -6 25 -5 4 -7 10 -5 13 2 4 -2 32 -10 62 -8 30
-17 73 -21 95 -12 85 -55 128 -130 132 -35 2 -49 -3 -77 -27 -74 -66 -59 -169
32 -208 33 -15 50 -17 59 -10 7 6 13 7 13 4 0 -4 9 -2 21 5 26 13 36 4 43 -41
3 -19 13 -66 22 -105 9 -38 16 -78 16 -87 0 -10 14 -33 31 -52 36 -38 39 -46
25 -63 -8 -10 -15 -9 -31 2 -47 30 -111 25 -160 -14 -9 -8 -19 -12 -21 -10
-11 13 -86 141 -86 148 0 5 -7 14 -15 21 -9 7 -13 15 -11 18 3 3 -4 18 -15 34
-11 15 -31 56 -45 90 -28 72 -46 95 -93 114 -46 19 -77 18 -129 -7 -54 -26
-77 -63 -91 -143 -6 -33 -13 -72 -16 -86 -9 -47 -25 -125 -31 -155 -3 -16 -6
-40 -7 -52 -1 -17 -13 -26 -59 -43 -62 -23 -116 -71 -145 -130 -35 -72 -18
-197 37 -264 22 -27 81 -63 127 -76 40 -12 41 -14 92 -139 50 -125 60 -157 43
-147 -25 15 -121 -86 -113 -118 3 -11 -54 0 -92 19 -17 8 -36 15 -44 15 -7 0
-21 4 -31 9 -9 5 -32 15 -49 21 -18 7 -34 18 -34 24 -1 6 -3 25 -4 41 -19 180
-24 427 -12 485 4 19 10 53 13 75 3 21 8 44 12 49 3 6 7 19 8 30 2 22 11 61
14 61 1 0 3 7 5 16 1 8 15 44 30 80 75 180 87 223 95 329 5 80 12 113 29 140
11 19 25 44 30 56 5 11 36 54 69 95 136 170 356 361 455 395 9 4 17 10 17 14
0 4 14 13 30 20 17 7 30 15 30 19 0 3 18 17 40 31 22 14 40 27 40 30 0 3 18
16 40 30 22 14 40 28 40 32 0 5 7 8 15 8 8 0 15 3 15 8 0 4 12 15 27 24 26 16
37 15 39 0z m1647 -108 c10 -2 27 -6 37 -9 10 -3 28 -8 39 -10 12 -3 30 -7 42
-10 58 -12 60 -14 43 -41 -9 -13 -14 -24 -11 -24 3 0 2 -13 -3 -29 -4 -16 -5
-32 -2 -36 3 -3 7 -13 8 -23 2 -9 8 -44 13 -77 30 -173 30 -171 -4 -179 -49
-12 -110 -80 -121 -134 -4 -20 -1 -19 -114 -26 l-105 -7 -19 47 c-23 56 -66
100 -123 125 l-41 19 13 43 c47 149 68 197 84 197 35 0 117 51 146 91 17 22
31 44 31 47 9 44 18 53 43 47 14 -4 34 -9 44 -11z m3656 -120 c18 -2 38 -7 44
-11 5 -3 7 -1 4 4 -5 7 5 8 31 3 20 -5 71 -11 112 -15 41 -3 99 -8 128 -11 73
-6 82 -13 133 -91 24 -37 46 -70 49 -73 8 -7 108 -179 118 -202 2 -4 -43 -5
-100 -3 -57 2 -176 7 -266 10 -89 3 -166 6 -170 7 -4 1 -25 -1 -47 -6 -53 -10
-97 -45 -119 -94 -18 -40 -33 -48 -111 -58 -5 0 -17 -3 -25 -7 -8 -3 -31 -8
-51 -10 l-36 -5 2 36 c3 46 -16 85 -54 113 -30 22 -31 27 -14 69 49 116 84
180 98 180 9 0 32 16 52 35 32 32 36 40 37 91 l1 55 75 -6 c41 -4 90 -9 109
-11z m-2859 -27 c54 -28 93 -50 100 -57 3 -3 30 -18 60 -34 30 -16 69 -38 85
-48 17 -10 37 -21 45 -25 8 -4 38 -20 65 -36 28 -17 75 -43 105 -60 58 -32 90
-55 88 -66 -4 -22 50 -91 72 -91 16 0 12 -14 -10 -38 -11 -12 -20 -24 -20 -27
0 -20 -79 -115 -100 -120 -14 -4 -27 -7 -29 -8 -2 -1 -12 12 -21 28 -111 192
-139 248 -150 295 -14 60 -28 91 -47 103 -7 4 -13 13 -13 20 0 23 -105 78
-177 92 -18 4 -33 10 -33 14 0 5 -21 25 -47 45 -53 41 -40 47 27 13z m1850
-77 c3 -3 19 -13 35 -21 17 -8 49 -25 73 -37 l43 -23 -20 -28 c-11 -16 -25
-40 -31 -55 -6 -18 -19 -28 -40 -32 -16 -4 -30 -10 -30 -15 0 -5 -3 -8 -7 -7
-5 1 -21 -4 -38 -11 -99 -40 -345 -145 -375 -159 -19 -9 -41 -15 -47 -14 -7 2
-13 -1 -13 -6 0 -5 -15 -13 -32 -17 -18 -4 -39 -9 -45 -10 -25 -6 -83 -47 -78
-55 3 -4 -2 -10 -10 -14 -8 -3 -30 9 -50 27 -19 18 -45 40 -58 49 -12 10 -35
29 -52 43 -16 14 -75 62 -131 108 -72 58 -103 91 -111 115 -9 28 -8 32 6 28 9
-3 72 -8 141 -12 130 -7 171 -9 330 -20 203 -13 260 -10 320 20 48 23 123 97
126 124 0 4 4 19 8 34 l8 27 36 -17 c21 -9 39 -19 42 -22z m-2362 -60 c17 -11
32 -25 32 -30 0 -6 4 -9 9 -6 5 4 11 3 13 -2 1 -4 26 -25 53 -47 28 -21 55
-44 60 -50 6 -5 33 -28 62 -49 29 -22 50 -43 47 -47 -2 -4 5 -32 16 -62 22
-57 79 -126 120 -144 23 -9 9 -18 -175 -108 -110 -54 -202 -99 -205 -101 -14
-7 -38 26 -43 58 -4 32 3 62 14 58 14 -5 69 27 96 57 94 102 59 257 -73 320
-40 19 -54 31 -55 47 0 11 -2 32 -5 46 -15 91 -15 90 34 60z m2492 -242 c22
-23 40 -43 40 -44 0 -2 -22 -27 -50 -56 -31 -33 -53 -49 -57 -42 -5 5 -23 16
-41 23 -46 19 -108 0 -130 -39 -17 -29 -35 -36 -148 -56 -16 -3 -44 -9 -61
-14 -24 -6 -33 -5 -33 4 0 7 -10 22 -21 35 -16 17 -18 26 -10 34 6 6 11 7 11
3 0 -5 6 -4 13 2 6 5 62 30 122 55 61 25 128 54 150 63 22 10 42 18 45 19 6 2
43 18 90 38 19 8 36 16 38 16 1 1 21 -18 42 -41z m-1104 -9 c22 -17 59 -48 84
-69 43 -37 75 -64 185 -155 26 -22 54 -44 62 -48 7 -5 11 -12 8 -18 -4 -5 -1
-9 4 -9 6 0 10 -4 9 -9 -5 -19 37 -71 69 -86 33 -16 39 -31 48 -115 10 -94 14
-120 19 -129 8 -12 -14 -26 -23 -15 -18 25 -160 21 -181 -6 -4 -4 -185 -61
-210 -65 -3 -1 -29 -9 -59 -18 -68 -21 -81 -21 -81 -1 0 55 -71 139 -148 175
-54 26 -109 30 -212 16 -25 -4 -74 -9 -110 -12 -36 -3 -83 -8 -105 -10 -22 -3
-61 -7 -87 -9 -26 -3 -53 -8 -59 -12 -7 -4 -10 -2 -7 6 3 11 338 131 462 165
73 21 101 53 99 116 -1 37 -6 55 -22 68 -12 10 -21 22 -21 27 1 5 24 43 53 84
41 58 63 80 99 97 26 12 52 31 58 43 14 27 20 26 66 -11z m2488 -53 c142 -4
160 -7 177 -25 11 -11 19 -22 19 -25 0 -2 30 -45 68 -94 37 -50 75 -105 86
-122 l18 -32 -33 6 c-19 3 -45 8 -59 11 -14 3 -35 8 -47 11 -13 2 -33 6 -45 8
-48 10 -75 16 -140 33 -83 21 -141 10 -203 -41 l-40 -33 -29 96 c-16 53 -32
100 -35 106 -3 5 -6 16 -7 25 -1 8 -7 29 -12 47 -6 17 -8 33 -6 35 2 2 32 3
66 2 35 -2 134 -5 222 -8z m-3070 -38 c-3 -5 -1 -8 4 -8 5 0 23 -26 39 -57 59
-111 68 -128 74 -133 6 -5 20 -37 24 -55 2 -5 4 -16 6 -24 3 -9 -32 -25 -116
-53 -66 -22 -155 -53 -198 -68 l-77 -28 -29 29 c-16 16 -38 29 -48 30 -10 0
-28 2 -41 3 -14 2 -37 -10 -59 -29 -32 -27 -36 -37 -36 -76 0 -63 8 -134 17
-147 4 -7 -9 -21 -32 -36 -55 -34 -79 -79 -76 -141 2 -49 10 -115 20 -165 3
-14 7 -43 10 -65 3 -21 8 -43 10 -47 3 -4 -2 -8 -11 -8 -8 0 -21 11 -27 25 -6
14 -15 25 -20 25 -4 0 -8 5 -8 11 0 5 -18 37 -40 69 -22 32 -40 65 -40 73 0
54 -64 136 -123 157 l-35 13 -1 130 c-2 160 7 178 114 229 38 18 72 36 73 41
2 4 8 7 14 7 6 0 88 38 182 84 94 46 189 87 212 91 78 12 194 104 194 153 0
13 3 12 14 -3 8 -11 12 -23 10 -27z m-1045 -63 c6 -32 58 -91 100 -113 21 -12
42 -18 45 -15 6 7 7 3 11 -42 4 -55 -31 -91 -165 -171 l-125 -74 -15 26 c-8
13 -35 34 -60 46 -41 20 -137 109 -160 150 -8 14 -5 20 17 32 60 32 105 87
117 143 7 30 10 32 59 35 29 2 79 3 112 3 52 0 60 -3 64 -20z m-669 -43 c12
-25 28 -55 38 -65 27 -31 86 -65 125 -72 26 -5 48 -21 84 -62 26 -31 56 -63
66 -72 23 -21 21 -32 -8 -60 -14 -13 -28 -34 -31 -47 -6 -22 -62 -64 -93 -70
-8 -2 -17 -7 -20 -12 -3 -5 -43 -29 -88 -53 -45 -24 -96 -51 -112 -60 -16 -9
-41 -23 -54 -32 -27 -18 -31 -15 -55 33 -7 14 -18 32 -25 40 -16 21 -89 76
-96 72 -3 -1 -18 2 -33 7 -21 7 -28 19 -37 58 -6 26 -14 57 -17 68 -3 11 -6
25 -8 30 -1 6 -5 19 -9 30 -3 11 -8 31 -11 45 -3 14 -12 48 -19 77 l-15 52 45
48 c29 31 54 48 71 50 15 1 38 4 52 8 14 3 48 7 75 9 28 2 57 7 65 9 16 6 45
12 72 14 12 1 24 -13 38 -45z m4203 -18 c10 -19 31 -43 47 -52 16 -9 30 -21
30 -25 0 -5 5 -5 10 -2 12 7 4 -37 -11 -67 -5 -9 -10 -28 -11 -42 -1 -15 -7
-26 -12 -26 -5 0 -7 -3 -3 -6 3 -3 1 -19 -5 -34 -6 -20 -19 -31 -38 -35 -16
-3 -31 -13 -34 -21 -3 -9 -10 -13 -15 -10 -5 3 -14 -8 -21 -24 -15 -35 -32
-51 -57 -52 -31 -1 -357 13 -359 15 -1 1 5 18 14 37 18 37 20 64 9 120 -7 35
-56 100 -75 100 -5 0 -14 6 -20 13 -8 9 0 29 29 75 l39 62 21 -21 c23 -23 67
-42 80 -33 5 3 9 1 9 -4 0 -6 33 -2 73 8 68 18 100 25 157 36 14 2 38 8 54 12
60 16 72 13 89 -24z m-4759 -29 c9 -14 27 -27 40 -31 18 -4 26 -15 32 -42 8
-40 8 -40 17 -62 3 -8 19 -71 37 -139 32 -125 31 -140 -5 -141 -22 0 -87 -53
-109 -89 -13 -20 -30 -64 -37 -97 -16 -74 -12 -60 -49 -184 -17 -58 -33 -116
-36 -129 -3 -13 -9 -32 -15 -42 -5 -10 -8 -22 -8 -26 3 -13 -20 -63 -28 -61
-17 4 -82 -36 -94 -58 -7 -13 -15 -24 -18 -24 -3 0 -17 16 -31 36 -14 19 -37
49 -52 67 -15 18 -28 34 -29 37 0 3 -2 15 -3 27 -3 29 -55 103 -72 103 -8 0
-14 4 -14 10 0 5 -3 10 -7 9 -19 -3 -53 15 -53 27 0 19 0 19 -11 56 -5 18 -12
49 -15 68 -3 19 -9 51 -15 70 -13 49 -11 70 5 70 22 0 64 57 76 103 19 70 52
157 61 157 4 0 24 15 44 34 32 31 36 39 34 81 -2 25 -6 48 -11 51 -18 12 -5
22 55 43 34 12 69 25 77 28 8 4 18 7 23 8 4 2 8 3 10 4 10 6 164 60 173 60 7
1 19 -10 28 -24z m5040 -21 c3 -11 9 -32 16 -49 6 -16 11 -31 11 -32 0 -2 1
-8 4 -15 31 -94 47 -158 50 -190 1 -15 62 -88 83 -99 25 -14 29 -29 7 -29 -8
0 -15 -3 -15 -7 0 -13 -93 -70 -124 -77 -25 -6 -121 -86 -102 -86 4 0 2 -8 -3
-19 -6 -11 -20 -18 -33 -17 -13 1 -27 0 -33 -3 -5 -2 -32 -6 -60 -7 -47 -1
-156 -9 -285 -20 -30 -2 -95 -6 -145 -9 -49 -3 -105 -7 -122 -9 -40 -6 -47 4
-28 40 7 15 12 31 9 36 -3 4 -2 8 3 9 89 5 131 9 198 15 44 4 98 8 120 9 22 2
40 3 40 4 0 1 34 4 75 7 156 9 178 14 217 48 51 42 68 128 38 187 -9 16 -33
42 -54 57 l-38 28 24 74 c12 41 24 82 26 90 3 22 21 38 50 45 14 4 34 15 44
25 21 20 22 20 27 -6z m-1278 -44 c13 0 64 -49 168 -160 13 -14 29 -43 36 -65
7 -22 21 -49 31 -61 15 -16 16 -23 7 -32 -7 -7 -17 -12 -22 -12 -20 0 -72 -55
-90 -93 -21 -45 -20 -127 2 -172 18 -38 62 -85 79 -85 7 0 13 -4 13 -8 0 -5 8
-10 18 -11 57 -8 359 2 369 13 4 3 10 6 15 6 5 0 -4 -17 -21 -37 -17 -21 -31
-45 -31 -53 0 -16 -58 -102 -72 -108 -5 -2 -8 -9 -8 -15 0 -7 -13 -25 -28 -42
-15 -16 -31 -38 -35 -47 -3 -10 -11 -18 -17 -18 -5 0 -10 -5 -10 -11 0 -15
-23 -35 -40 -34 -8 0 -26 -5 -40 -12 -14 -7 -30 -13 -35 -13 -13 0 -78 -66
-93 -95 -9 -16 -11 -17 -12 -3 0 9 -4 18 -8 20 -9 3 -83 144 -82 155 1 13 -44
63 -57 63 -9 0 -11 41 -7 166 2 92 7 170 9 174 3 5 1 11 -5 15 -6 4 -8 10 -5
15 8 12 -72 93 -84 86 -5 -4 -12 -2 -15 3 -9 14 -63 3 -118 -26 -29 -15 -55
-28 -58 -29 -3 0 -18 -6 -35 -13 -39 -15 -51 -12 -47 11 2 10 -1 42 -7 71 -6
28 -13 76 -16 106 -4 30 -8 62 -10 71 -2 9 -6 43 -9 76 -4 32 -9 68 -12 81 -5
16 1 25 23 36 42 23 80 75 74 102 -2 5 0 7 4 3 4 -3 21 -2 38 3 18 5 48 12 67
14 19 3 53 9 75 14 36 7 42 5 63 -21 13 -15 30 -28 38 -28z m1769 -80 c4 -6
10 -8 14 -6 4 3 27 0 52 -6 24 -6 53 -12 64 -14 11 -1 31 -6 45 -9 14 -4 30
-7 37 -7 17 -2 56 -92 84 -198 12 -41 14 -50 22 -70 5 -14 40 -162 73 -310 14
-59 19 -82 31 -130 2 -8 5 -28 8 -45 5 -38 10 -72 25 -160 6 -38 13 -83 15
-100 2 -16 6 -48 9 -70 10 -67 15 -108 20 -150 13 -105 17 -128 23 -138 3 -5
1 -7 -5 -3 -6 3 -13 2 -17 -4 -4 -6 -10 -8 -15 -5 -5 3 -51 8 -102 11 -51 3
-99 6 -105 6 -17 2 -16 7 7 53 45 89 8 202 -82 248 l-27 14 25 36 c14 20 31
37 38 37 20 0 47 35 52 69 5 31 -27 101 -46 101 -5 0 -7 15 -5 33 2 17 6 66
10 107 3 41 8 93 10 115 3 22 7 60 9 85 2 25 5 50 6 55 1 6 2 12 0 15 -1 3 -3
16 -6 29 -2 14 -9 30 -15 38 -6 7 -9 13 -6 13 9 0 -37 43 -61 58 -12 6 -28 12
-36 12 -8 0 -30 21 -47 48 -18 26 -37 50 -43 54 -7 5 -7 8 -1 8 7 0 7 3 0 8
-19 13 -68 96 -71 118 -1 12 -5 31 -9 43 -6 21 9 30 20 11z m-6380 -142 c44
-78 84 -157 88 -174 9 -35 67 -94 92 -94 8 0 15 -6 16 -12 0 -7 2 -20 4 -28 1
-8 5 -28 8 -45 3 -16 12 -63 21 -103 20 -92 20 -89 -7 -96 -35 -8 -86 -64 -99
-110 -7 -22 -37 -72 -67 -111 -67 -85 -83 -104 -97 -119 -6 -6 -19 -24 -29
-39 l-18 -28 -36 40 c-34 38 -78 63 -119 70 -6 1 -32 57 -37 81 -1 3 -9 22
-18 44 -9 21 -17 45 -17 52 0 8 -3 14 -8 14 -4 0 -12 16 -18 36 l-11 35 46 24
c69 36 100 68 125 129 28 69 27 138 -4 201 -26 54 -90 111 -142 127 -31 9 -37
15 -32 32 3 12 7 35 9 51 2 17 4 31 6 33 2 3 4 12 12 63 l8 46 48 -23 c46 -23
51 -23 98 -9 27 8 58 24 68 35 10 11 21 20 24 20 3 0 42 -64 86 -142z m2221
18 c8 -8 14 -32 14 -53 -1 -21 0 -81 2 -133 l3 -95 -47 -22 c-42 -19 -88 -66
-95 -96 -1 -6 -6 -28 -11 -48 -11 -43 13 -124 46 -157 28 -28 80 -54 117 -58
37 -4 125 15 125 27 0 5 6 9 13 9 6 0 22 14 33 31 l22 30 31 -46 c36 -53 37
-61 13 -74 -10 -5 -24 -21 -31 -34 -13 -24 -14 -24 -67 -12 -30 7 -54 10 -54
8 0 -2 -6 -1 -12 4 -7 4 -24 9 -38 11 -14 1 -32 5 -40 9 -18 7 -26 9 -65 16
-16 3 -52 10 -80 17 -27 6 -57 13 -65 15 -101 22 -110 25 -110 41 0 41 -83
144 -116 144 -8 0 -14 5 -14 10 0 6 -3 9 -7 9 -21 -3 -20 8 12 97 18 53 35 96
37 97 63 32 77 43 98 84 21 38 40 54 119 99 52 30 98 54 102 54 5 0 9 4 9 9 0
5 8 12 18 14 9 3 18 5 20 6 2 0 10 -5 18 -13z m4181 -121 c18 -30 28 -55 23
-55 -19 0 -72 -62 -85 -100 -8 -22 -27 -56 -42 -75 -28 -35 -28 -35 -95 -31
-76 5 -88 10 -88 35 0 9 -15 32 -34 50 l-35 34 32 23 c62 45 112 73 141 78 42
8 126 71 126 95 0 23 27 -3 57 -54z m-3227 -3 c0 -5 -8 -17 -18 -28 -10 -10
-25 -41 -33 -68 -9 -27 -22 -51 -30 -52 -21 -4 -61 -13 -89 -20 -14 -3 -36 -7
-50 -9 -14 -2 -26 -3 -27 -4 -2 -1 -4 -1 -5 0 -2 0 -15 -4 -29 -10 -23 -8 -28
-6 -40 17 -17 32 -45 59 -77 72 -20 9 -45 49 -36 59 3 3 22 6 129 16 33 3 78
8 100 10 22 3 74 7 115 11 41 3 77 8 79 10 7 6 11 5 11 -4z m1985 -32 c3 6 11
7 18 3 6 -3 54 -8 106 -9 246 -6 229 -4 245 -35 14 -28 13 -29 -9 -35 -13 -3
-29 -3 -34 1 -6 3 -11 2 -11 -2 0 -5 -21 -9 -47 -10 -54 -2 -126 -8 -229 -18
l-71 -6 -17 41 c-9 22 -23 43 -31 46 -8 4 -15 10 -15 14 0 12 62 17 77 7 6 -4
14 -3 18 3z m-3475 -22 c0 -7 18 -26 38 -41 l38 -28 -34 -99 c-30 -87 -37
-100 -61 -105 -55 -12 -136 -83 -145 -127 -2 -7 -6 -24 -9 -38 -4 -14 -9 -42
-12 -62 -2 -21 -10 -59 -16 -85 -6 -27 -13 -59 -15 -73 -3 -14 -7 -32 -9 -40
-3 -8 -7 -33 -10 -55 -4 -22 -9 -49 -13 -60 -3 -11 -6 -22 -7 -25 -1 -5 -4
-22 -20 -100 -3 -14 -8 -38 -11 -55 -3 -16 -11 -57 -19 -90 -7 -33 -16 -77
-19 -99 -4 -21 -8 -42 -11 -46 -3 -4 -7 -23 -10 -41 -2 -19 -7 -44 -10 -56 -3
-13 -7 -31 -9 -40 -29 -121 -29 -135 0 -200 19 -42 80 -91 124 -100 33 -6 43
-7 88 -4 49 3 148 99 142 138 -2 10 33 22 44 15 5 -3 45 -6 90 -8 45 -1 131
-5 192 -8 98 -4 116 -3 152 15 41 20 72 60 87 108 8 25 141 169 148 160 3 -2
28 -67 57 -144 29 -77 56 -149 60 -160 6 -16 3 -20 -16 -21 -13 -1 -32 -5 -42
-10 -9 -4 -19 -8 -22 -9 -43 -10 -135 -82 -175 -136 -26 -36 -55 -111 -62
-159 -7 -55 -9 -63 -21 -93 -7 -16 -12 -33 -12 -38 0 -5 -5 -9 -10 -9 -6 0 -9
-3 -8 -7 2 -9 -22 -84 -32 -98 -3 -5 -15 -32 -25 -60 -17 -49 -41 -85 -54 -83
-40 5 -101 -43 -132 -104 -22 -44 -19 -42 -64 -24 -18 8 -36 12 -39 8 -3 -3
-6 2 -6 12 0 9 -15 33 -34 52 -28 29 -41 35 -79 36 -30 0 -52 -5 -62 -16 -9
-9 -20 -16 -24 -16 -4 0 -16 -17 -25 -38 -14 -32 -16 -46 -7 -79 10 -38 40
-73 73 -85 14 -6 25 -37 34 -101 l4 -27 -38 19 c-20 10 -48 22 -62 26 -27 8
-70 43 -70 57 0 5 -12 27 -27 51 -15 23 -28 44 -28 47 -1 3 -15 28 -32 55 -18
28 -31 52 -30 55 0 3 -7 14 -16 25 -9 11 -17 24 -16 29 0 5 -3 12 -8 15 -5 3
-19 24 -32 46 -31 53 -61 105 -75 130 -6 11 -24 39 -39 62 -15 24 -27 47 -27
52 0 5 -7 14 -15 21 -8 7 -12 16 -9 21 3 5 0 9 -6 9 -7 0 -10 6 -7 13 2 6 10
11 16 9 6 -1 11 2 11 6 0 5 9 18 20 30 45 49 33 144 -25 188 -28 21 -48 26
-107 30 -76 4 -354 14 -495 18 -45 1 -85 5 -89 9 -4 3 7 14 23 24 22 12 44 45
82 120 28 57 56 101 61 98 6 -4 8 -11 5 -16 -4 -5 -2 -9 3 -9 5 0 14 -10 21
-23 6 -12 28 -33 49 -47 20 -14 39 -28 42 -31 9 -11 64 -22 115 -25 127 -5
253 99 270 224 2 15 4 32 5 37 1 6 1 12 0 15 -2 6 -8 103 -14 221 -2 48 -7 92
-10 98 -4 6 -2 11 4 11 6 0 8 5 5 10 -6 9 -12 99 -20 305 -2 50 -4 90 -5 90
-1 0 -2 26 -3 59 -2 45 1 60 13 63 90 30 151 91 172 171 6 23 15 42 20 42 6 0
22 8 36 18 15 11 56 34 92 53 36 19 67 36 70 39 3 3 25 15 50 27 25 13 63 34
85 47 46 29 55 31 55 14z m2214 -87 c-14 -10 -9 -93 8 -131 14 -32 33 -55 73
-88 8 -7 15 -10 15 -6 0 3 7 1 15 -6 26 -22 160 -15 174 9 6 10 100 59 114 60
4 0 20 7 36 16 34 17 51 6 51 -34 0 -4 13 -22 29 -38 l29 -31 -21 -20 c-22
-19 -152 -160 -218 -234 -33 -38 -59 -49 -59 -25 0 19 -53 73 -91 92 -18 10
-49 20 -68 22 -18 3 -58 13 -87 23 -30 11 -54 16 -54 13 0 -3 -6 -1 -12 4 -7
5 -33 15 -58 23 -25 7 -69 21 -97 31 -29 10 -53 16 -53 13 0 -3 -6 -2 -12 3
-7 4 -15 8 -18 9 -16 3 -66 17 -72 21 -4 2 13 23 38 48 39 40 72 95 80 133 6
33 15 41 49 48 19 3 38 10 41 15 3 5 9 7 14 4 4 -3 24 2 44 10 20 8 36 13 36
11 0 -3 15 1 32 9 31 12 60 10 42 -4z m-779 -101 c6 -33 49 -102 81 -130 37
-33 88 -56 144 -66 25 -4 47 -8 50 -9 25 -5 189 -58 203 -66 10 -5 22 -7 27
-4 6 4 10 1 10 -4 0 -6 3 -10 8 -9 4 1 34 -7 67 -17 59 -19 67 -21 83 -24 4
-1 14 -5 22 -11 12 -7 11 -12 -6 -27 -26 -23 -64 -86 -64 -106 0 -16 -11 -16
-170 -3 -91 8 -195 16 -265 21 -33 2 -60 5 -60 6 0 0 -16 2 -35 4 -19 1 -38 3
-41 4 -4 0 -12 15 -19 31 -14 33 -78 92 -92 84 -7 -5 -48 12 -58 25 -3 3 -27
24 -55 45 -27 22 -73 59 -102 83 l-52 44 29 28 c17 15 27 31 23 34 -3 4 -1 7
6 7 7 0 10 4 7 9 -11 18 15 29 102 46 13 2 31 6 40 9 9 3 35 7 56 11 22 3 42
8 45 10 7 7 11 0 16 -25z m2709 -118 c12 -26 30 -45 59 -59 84 -44 180 -14
221 70 12 24 55 34 81 20 12 -7 9 -16 -23 -51 -20 -24 -44 -44 -53 -45 -29 -5
-89 -51 -95 -74 -8 -28 -17 -28 -124 2 -8 2 -64 18 -125 35 -60 17 -121 33
-135 36 -14 3 -34 8 -45 11 -11 4 -23 8 -27 9 -5 1 -10 3 -13 4 -3 1 -8 3 -12
4 -5 1 -41 10 -80 21 -72 19 -95 34 -50 32 32 -1 261 14 265 18 2 1 33 3 71 4
l68 1 17 -38z m601 7 c0 -6 94 -5 113 2 20 8 26 2 24 -22 -4 -34 -15 -169 -16
-186 -1 -26 -73 -113 -93 -113 -8 0 -27 -7 -43 -15 -16 -8 -37 -17 -47 -18
-10 -2 -31 -10 -48 -16 -16 -7 -38 -14 -48 -16 -9 -2 -23 -7 -30 -12 -6 -4
-14 -8 -17 -8 -18 -3 -97 -30 -105 -36 -5 -3 -25 -10 -42 -14 -26 -5 -33 -3
-33 8 0 14 27 32 43 29 4 -1 7 2 7 6 0 8 14 15 115 57 48 20 86 72 90 124 3
44 -24 104 -59 132 l-25 20 22 26 c54 64 53 64 125 59 37 -3 67 -6 67 -7z
m-5484 -91 c14 -9 36 -18 49 -20 22 -3 25 -9 27 -53 1 -27 4 -97 7 -155 3 -58
8 -157 11 -220 3 -63 7 -145 9 -181 l3 -67 -41 29 c-23 15 -56 31 -72 35 -35
8 -111 8 -140 1 -39 -10 -102 -46 -117 -67 -7 -11 -17 -17 -20 -13 -4 3 -7 -1
-7 -10 0 -9 -3 -17 -7 -17 -12 0 -34 -51 -39 -90 -3 -19 -35 -94 -71 -166
l-67 -132 -28 21 c-15 11 -30 28 -33 38 -3 10 -18 22 -33 27 -15 5 -68 29
-119 53 l-92 42 29 34 c17 19 30 42 30 52 0 10 6 23 13 29 13 11 262 154 287
165 8 4 29 16 45 27 17 11 37 23 45 27 8 4 35 19 60 33 25 15 69 35 98 44 58
19 121 83 123 123 1 13 2 33 3 46 4 53 -42 126 -95 147 -28 12 -31 23 -16 60
3 8 17 58 32 110 14 52 28 101 31 109 3 11 13 7 37 -16 18 -16 44 -37 58 -45z
m1826 0 c43 -34 91 -74 107 -90 17 -15 36 -28 43 -28 20 0 16 -13 -18 -51 -17
-19 -33 -45 -36 -59 -5 -27 -153 -190 -171 -190 -6 0 -19 14 -29 30 -9 17 -21
30 -25 30 -16 0 -7 27 16 50 28 25 51 103 36 123 -4 5 -16 89 -26 177 -3 25
-7 51 -9 58 -10 29 39 8 112 -50z m1798 -10 c-2 -35 -4 -81 -4 -104 -1 -33 -6
-43 -28 -55 -14 -8 -33 -30 -41 -49 -15 -37 -64 -112 -94 -144 -10 -11 -18
-23 -18 -26 0 -4 -8 -16 -17 -28 -10 -11 -60 -80 -112 -152 -70 -98 -104 -135
-130 -148 -20 -9 -39 -18 -42 -19 -4 -2 -15 18 -24 44 -18 52 -26 72 -44 116
-15 37 -16 35 22 50 46 20 104 81 117 125 21 68 32 92 41 86 5 -3 9 -1 9 4 0
6 19 30 43 55 23 25 83 89 132 142 140 153 153 165 173 165 17 0 19 -7 17 -62z
m970 -19 c39 -11 77 -22 85 -23 8 -2 35 -9 60 -16 25 -7 50 -13 55 -15 6 -1
17 -4 25 -8 20 -7 135 -37 163 -43 45 -8 73 -25 85 -52 6 -16 21 -38 32 -49
l19 -22 -92 -45 c-90 -44 -116 -68 -115 -106 0 -26 -13 -217 -17 -236 -2 -11
-4 -22 -4 -26 -1 -4 -10 -10 -21 -13 -11 -4 -33 -17 -49 -31 l-29 -24 -12 32
c-7 18 -14 38 -15 43 -2 6 -11 28 -21 50 -10 22 -18 42 -19 45 -3 8 -16 42
-36 88 -10 23 -15 42 -12 42 3 0 1 6 -5 13 -8 9 -92 215 -97 237 -1 3 -6 16
-12 30 -28 65 -53 132 -53 140 0 14 5 13 85 -11z m-270 -129 c15 0 21 -15 30
-75 3 -22 10 -67 16 -100 7 -33 13 -71 14 -85 2 -14 4 -25 5 -25 1 0 3 -11 5
-25 2 -14 6 -38 9 -55 16 -80 16 -97 5 -111 -6 -8 -17 -14 -23 -14 -14 1 -75
134 -83 183 -3 21 -10 40 -14 43 -5 3 -9 13 -9 24 0 10 -7 20 -15 24 -8 3 -15
12 -15 21 0 8 -4 15 -8 15 -5 0 -17 8 -28 18 -10 9 -31 23 -46 29 -27 12 -38
33 -18 33 6 0 10 5 10 11 0 9 46 73 78 107 6 7 12 18 12 24 0 5 14 -2 31 -16
17 -14 37 -26 44 -26z m-3294 16 c13 -2 44 -9 69 -15 25 -7 54 -14 65 -16 11
-3 72 -16 135 -31 150 -34 142 -32 162 -33 10 -1 30 -19 45 -42 15 -24 44 -49
67 -60 27 -13 56 -41 85 -80 l44 -60 -46 -47 c-25 -26 -78 -81 -118 -122 -49
-51 -74 -70 -76 -60 -3 8 -9 24 -14 35 -5 11 -15 39 -23 62 -14 39 -13 44 2
59 25 25 22 89 -5 116 -32 31 -90 28 -120 -6 -12 -14 -36 -28 -54 -31 -18 -3
-36 -8 -40 -11 -4 -2 -29 -7 -55 -10 -27 -3 -53 -8 -58 -12 -6 -3 -19 -7 -31
-8 -11 -1 -33 -5 -50 -9 -16 -4 -37 -8 -45 -9 -8 -1 -24 -5 -35 -9 -11 -3 -33
-9 -50 -11 -24 -4 -152 -31 -248 -51 -17 -4 -17 -3 0 28 10 17 24 38 31 45 6
7 12 18 12 23 0 6 19 43 43 82 23 40 48 84 56 98 8 17 27 31 54 39 22 6 55 23
72 36 31 23 84 104 68 104 -4 0 -1 4 7 9 8 6 17 8 20 6 4 -2 17 -6 31 -9z
m3469 -48 c13 -35 25 -65 26 -68 0 -3 5 -16 11 -30 26 -61 145 -356 147 -365
2 -5 8 -21 13 -35 38 -89 57 -140 65 -174 10 -44 57 -115 76 -116 30 0 22 -9
-307 -328 -100 -97 -133 -123 -169 -133 -43 -12 -98 -55 -120 -94 -12 -23 -13
-22 -157 141 -38 43 -80 89 -93 101 l-23 22 23 12 c34 18 69 58 86 98 14 34
16 66 24 318 l3 101 28 6 c38 8 109 58 126 90 8 14 17 26 21 26 7 0 52 -87 56
-108 7 -37 48 -101 72 -112 119 -58 229 92 133 182 -16 15 -34 28 -39 28 -8 0
-20 56 -38 175 -2 17 -9 54 -15 84 -6 30 -12 64 -14 75 -3 28 -16 109 -18 117
-2 8 43 49 52 49 3 0 17 -28 31 -62z m-3808 -94 c27 -14 28 -17 15 -32 -8 -9
-37 -57 -63 -105 -27 -49 -54 -96 -59 -105 -6 -9 -21 -37 -34 -60 -26 -52 -36
-50 -22 4 10 39 21 91 26 129 2 11 4 20 5 20 1 0 4 13 14 65 2 14 5 25 6 25 3
0 18 85 19 113 1 9 12 5 32 -12 17 -15 45 -34 61 -42z m-1389 -49 c73 -14 134
7 182 63 l21 25 35 -44 c18 -24 41 -52 50 -62 9 -10 22 -38 29 -62 7 -24 25
-57 41 -73 l30 -30 -23 -16 c-12 -9 -28 -16 -35 -16 -7 0 -13 -4 -13 -9 0 -5
-8 -11 -17 -15 -10 -3 -39 -18 -64 -33 -95 -57 -180 -103 -189 -103 -6 0 -10
-4 -10 -8 0 -5 -12 -14 -26 -21 -25 -11 -29 -9 -68 33 -40 43 -99 70 -144 65
-9 -1 -21 0 -27 1 -13 3 -61 6 -107 8 -27 2 -38 7 -38 18 0 8 5 12 10 9 6 -3
10 -2 10 4 0 5 5 22 12 38 6 15 13 36 15 47 2 10 14 32 28 48 14 16 25 34 25
39 0 6 5 7 10 4 6 -3 10 -2 10 3 0 6 30 47 66 92 l66 81 43 -40 c25 -23 58
-42 78 -46z m6261 27 c15 -18 15 -20 -4 -42 -11 -13 -20 -26 -20 -30 0 -4 -18
-12 -41 -19 -37 -11 -135 -88 -126 -98 3 -2 -1 -20 -8 -39 -26 -76 19 -176 97
-216 36 -19 71 -24 218 -33 180 -11 233 -15 237 -18 5 -6 -68 -117 -78 -119
-5 0 -27 -2 -49 -4 -22 -1 -41 -3 -42 -4 -2 -1 -25 -3 -53 -4 -45 -2 -54 1
-87 33 -21 19 -38 32 -38 28 0 -4 -10 -2 -22 4 -23 13 -66 20 -103 18 -47 -2
-55 -4 -55 -11 0 -4 -9 -8 -19 -8 -18 0 -90 -61 -92 -77 -1 -14 -9 -57 -25
-136 -8 -42 -17 -89 -20 -102 -2 -14 -6 -37 -9 -52 -2 -16 -7 -41 -11 -56 l-6
-29 -22 21 c-12 11 -38 27 -58 36 l-37 15 1 229 c1 206 -1 232 -17 258 -25 39
-45 57 -80 72 -33 15 -33 20 -21 136 2 22 5 45 5 52 1 7 11 11 24 10 32 -2 87
13 87 24 0 6 15 16 33 23 17 7 41 17 52 21 11 4 26 9 33 11 8 1 21 6 30 10 9
4 20 8 25 9 4 2 9 4 12 5 3 1 8 3 13 5 4 1 16 5 27 9 11 4 34 12 50 18 17 6
44 17 62 24 17 8 45 17 62 20 17 4 34 11 37 15 8 14 19 11 38 -9z m-3199 -18
c39 -3 95 -7 125 -9 30 -2 87 -7 125 -10 39 -3 90 -7 115 -9 25 -2 50 -4 56
-5 6 -1 14 -13 17 -28 13 -66 112 -153 172 -153 8 0 15 -7 15 -15 0 -9 9 -34
20 -55 11 -22 18 -40 16 -40 -3 0 10 -38 29 -85 18 -47 31 -85 28 -85 -3 0 -1
-6 4 -12 6 -7 13 -29 17 -48 5 -30 51 -82 75 -86 15 -2 55 -23 46 -24 -6 0 -6
-3 1 -8 6 -4 44 -52 85 -107 41 -55 80 -106 87 -115 6 -8 39 -51 71 -95 59
-79 59 -79 38 -94 -34 -24 -46 -37 -57 -65 -5 -14 -17 -27 -27 -27 -103 -7
-274 -20 -282 -21 -21 -2 -31 6 -40 35 -18 54 -68 101 -128 122 -33 11 -38 18
-40 47 -1 18 -4 56 -7 83 -3 28 -8 80 -10 116 -3 36 -11 81 -19 100 -44 107
-161 167 -259 133 -20 -7 -39 -10 -42 -7 -3 4 -6 1 -6 -5 0 -7 -5 -12 -12 -12
-7 0 -25 -12 -40 -27 -15 -15 -28 -23 -29 -17 -1 13 -8 51 -19 109 -6 28 -12
64 -14 80 -10 71 -31 112 -81 162 -28 26 -100 64 -109 56 -3 -4 -6 -2 -6 4 0
6 -9 9 -19 6 -12 -3 -26 3 -38 17 -10 12 -33 38 -50 58 -39 44 -40 49 -9 63
20 10 52 56 46 68 -4 10 25 18 53 14 18 -2 64 -6 102 -9z m1262 -54 c5 0 15
-17 22 -37 7 -21 21 -56 31 -78 10 -22 35 -80 55 -130 21 -49 45 -108 55 -130
10 -22 27 -62 39 -90 l22 -49 -23 -18 c-13 -10 -26 -18 -30 -18 -13 0 -46 -37
-63 -70 l-16 -31 -32 19 c-18 11 -48 28 -67 38 -19 10 -40 24 -46 29 -6 6 -54
35 -107 65 -73 41 -99 62 -107 83 -5 16 -24 42 -41 58 -17 16 -26 29 -19 29 6
0 8 5 5 10 -3 6 1 13 9 16 9 3 16 10 16 15 0 5 24 40 53 79 28 38 63 86 77
105 14 20 30 42 35 48 6 7 23 31 39 54 l28 43 28 -20 c16 -11 32 -20 37 -20z
m-1677 6 c0 5 5 1 11 -9 6 -10 35 -29 65 -42 30 -13 54 -28 54 -32 0 -4 14
-22 30 -40 35 -37 38 -53 10 -53 -11 0 -20 -4 -20 -10 0 -5 -6 -10 -14 -10
-18 0 -94 -83 -106 -116 l-10 -26 -37 48 c-21 27 -41 51 -45 52 -4 2 -8 10 -8
17 0 7 -3 15 -8 17 -16 7 -73 88 -68 96 3 5 31 37 63 71 52 55 59 60 70 44 7
-9 13 -13 13 -7z m1826 -41 c10 -25 21 -45 25 -45 4 0 19 -37 33 -82 15 -49
38 -98 55 -119 28 -34 91 -72 118 -72 16 0 25 -25 25 -64 0 -18 -1 -57 -1 -87
l-1 -54 -40 19 c-21 10 -47 19 -56 19 -10 0 -14 3 -11 7 4 3 3 11 -2 17 -5 6
-46 99 -91 206 -45 107 -91 216 -102 242 -17 39 -18 51 -8 63 17 20 32 7 56
-50z m-5301 -60 c84 -26 125 -47 125 -64 0 -19 36 -81 59 -99 30 -24 84 -44
135 -48 28 -2 82 -7 121 -10 77 -6 82 -8 68 -26 -11 -13 -26 -70 -27 -98 -1
-25 27 -84 51 -108 23 -23 93 -58 93 -47 0 4 6 3 13 -2 6 -4 17 -8 22 -9 6 -1
48 -20 95 -43 47 -22 90 -41 95 -41 6 0 20 -7 32 -15 l22 -16 -21 -24 c-11
-13 -35 -27 -52 -30 -17 -4 -50 -13 -73 -21 -23 -7 -53 -15 -66 -18 -13 -2
-59 -14 -101 -26 -43 -12 -86 -23 -97 -25 -10 -2 -23 -6 -27 -9 -5 -3 -19 -7
-33 -9 -13 -3 -50 -12 -81 -21 -45 -14 -61 -15 -76 -5 -37 23 -89 132 -118
244 -4 17 -8 35 -10 40 -4 14 -13 56 -18 81 -2 12 -14 56 -26 99 -33 118 -47
151 -109 255 -24 41 -51 86 -60 100 -15 23 -15 24 4 16 11 -4 38 -14 60 -21z
m2844 -94 c16 -16 37 -54 46 -83 10 -29 22 -59 28 -65 5 -7 6 -13 1 -13 -4 0
-3 -5 4 -12 22 -22 12 -42 -49 -106 l-61 -64 -32 30 c-42 40 -68 52 -113 53
-52 2 -90 -15 -128 -57 l-33 -35 -108 82 c-134 102 -165 130 -159 140 3 4 1
10 -5 14 -21 13 -8 23 43 33 28 6 65 13 82 17 98 21 173 37 195 41 14 3 32 7
40 9 8 3 33 7 55 11 22 3 43 8 46 10 4 2 24 6 45 10 22 3 41 8 43 10 11 11 34
1 60 -25z m478 -33 c26 -35 52 -68 58 -74 5 -6 17 -22 25 -34 8 -12 20 -28 25
-34 19 -20 53 -71 53 -79 2 -32 19 -79 43 -117 26 -42 102 -101 136 -106 8 -2
17 -5 20 -8 3 -2 -34 -85 -83 -183 -48 -98 -88 -181 -88 -185 -3 -21 -14 -13
-25 19 -37 101 -174 206 -286 218 -11 1 -23 3 -27 4 -7 1 -61 139 -56 144 2 1
-5 15 -15 30 -9 14 -18 34 -20 44 -2 10 -11 35 -20 57 -9 21 -17 44 -17 52 0
7 -5 16 -10 19 -25 15 3 58 115 173 65 67 120 122 121 122 2 0 24 -28 51 -62z
m-939 -313 c7 -5 18 -15 25 -20 7 -6 26 -19 42 -29 32 -20 42 -34 62 -79 l12
-28 -127 7 c-70 3 -130 8 -133 10 -4 2 -9 16 -12 32 -7 32 -54 85 -97 107 -26
13 -29 19 -20 35 6 11 17 20 25 20 8 0 29 13 47 29 l32 28 65 -51 c36 -28 72
-55 79 -61z m-340 80 c22 -20 25 -28 16 -43 -11 -17 -60 -40 -68 -31 -5 5 15
99 21 99 2 0 16 -11 31 -25z m2991 -152 c80 -48 148 -90 151 -93 3 -3 17 -11
31 -18 14 -8 26 -20 26 -27 0 -56 75 -135 141 -150 28 -6 67 -43 174 -167 30
-35 97 -108 140 -154 22 -23 41 -50 43 -60 2 -10 4 -20 5 -21 2 -2 3 -6 5 -10
14 -54 70 -119 110 -129 27 -7 30 -15 15 -42 -5 -9 -23 -46 -40 -82 -26 -55
-37 -68 -73 -85 -25 -12 -52 -36 -66 -58 l-25 -38 -55 7 c-31 4 -64 8 -73 8
-10 0 -18 3 -18 7 0 3 -12 5 -28 3 -49 -6 -58 9 -29 47 51 69 50 174 -2 247
-25 35 -92 79 -131 84 -14 2 -49 17 -78 32 -54 27 -54 27 -35 49 10 12 22 25
28 29 5 4 10 35 10 70 0 76 -27 119 -89 143 -27 11 -53 32 -76 63 -53 71 -54
72 -72 93 -10 10 -18 22 -18 25 0 3 -18 28 -40 54 -22 26 -40 50 -40 54 0 3
-9 16 -19 28 -11 13 -35 43 -53 67 l-34 44 31 32 c16 18 32 33 34 34 3 0 70
-38 150 -86z m-1063 20 c1 -10 5 -38 9 -63 5 -25 9 -56 11 -70 1 -14 3 -25 4
-25 1 0 3 -10 6 -23 6 -34 31 -78 59 -104 40 -38 54 -48 64 -48 23 0 19 -21
-11 -54 -18 -19 -49 -54 -68 -77 -78 -94 -146 -175 -165 -195 -11 -12 -27 -30
-35 -40 -54 -68 -75 -88 -93 -91 -45 -7 -104 -52 -128 -98 l-24 -46 -80 6
c-186 14 -192 15 -153 36 34 18 82 76 111 134 25 47 30 64 43 144 5 27 142
327 175 381 5 8 14 26 20 40 33 80 51 108 67 106 9 -2 24 0 32 4 8 4 28 14 44
21 16 8 45 29 64 46 41 38 47 40 48 16z m2575 -30 c0 -19 -2 -153 -5 -217 -1
-36 -4 -40 -40 -52 -42 -15 -89 -63 -107 -109 -19 -51 -32 -75 -41 -75 -7 0
-65 -33 -176 -102 -15 -9 -30 -17 -33 -17 -3 -1 -19 19 -35 44 -15 25 -30 45
-33 45 -4 0 -17 9 -31 20 l-25 19 121 118 c262 255 336 323 343 319 4 -3 17 1
27 9 25 19 34 19 35 -2z m803 -26 c-2 -12 -5 -37 -6 -55 -2 -24 -8 -37 -23
-42 -35 -14 -60 -23 -65 -24 -17 -3 -61 -48 -70 -71 l-11 -28 -32 30 c-18 16
-43 39 -56 51 l-24 21 26 10 c41 16 88 75 91 116 1 5 32 11 71 13 38 2 71 5
73 7 11 11 30 -10 26 -28z m-402 -132 c20 -4 56 -27 93 -61 33 -31 70 -62 82
-70 20 -15 22 -44 2 -44 -5 0 -17 -8 -27 -17 -10 -10 -29 -27 -43 -39 -44 -37
-156 -172 -200 -241 -12 -18 -25 -33 -30 -33 -5 0 -9 -6 -9 -13 0 -7 -11 -25
-25 -40 -14 -15 -22 -27 -18 -27 4 0 0 -5 -9 -11 -10 -5 -18 -17 -18 -24 0 -8
-3 -15 -7 -15 -5 0 -24 -25 -43 -55 -37 -57 -49 -67 -51 -37 -1 39 -7 90 -14
137 -13 87 -13 88 30 110 43 21 95 72 95 92 0 7 4 13 8 13 5 0 9 6 10 13 2 26
13 94 22 142 5 28 12 61 14 75 3 14 5 25 6 25 1 0 3 9 4 20 7 45 19 113 25
143 1 2 17 -5 36 -17 19 -11 49 -23 67 -26z m-6048 -105 c20 -19 36 -40 36
-47 0 -8 15 -13 43 -14 23 0 85 -2 137 -5 92 -3 295 -11 373 -13 25 -1 37 -6
37 -15 0 -20 -7 -23 -70 -31 -81 -10 -121 -15 -155 -21 -116 -19 -307 -23
-520 -11 -137 7 -195 15 -211 28 -7 6 -16 9 -20 8 -5 -1 -27 6 -49 16 -22 10
-43 19 -47 19 -14 2 -20 16 -7 17 22 2 31 4 79 18 25 7 52 14 60 16 8 2 41 10
72 20 31 9 68 18 81 20 12 3 41 11 63 18 51 18 55 17 98 -23z m3487 -36 c2
-59 1 -61 -28 -69 -62 -15 -125 -92 -140 -168 -2 -10 -35 -58 -75 -105 -39
-48 -96 -117 -127 -154 l-55 -67 -34 39 c-18 22 -40 40 -47 40 -35 0 -14 37
73 127 12 13 22 27 22 32 0 4 10 17 23 28 12 11 29 29 37 39 8 10 55 66 104
124 79 93 94 106 143 122 30 11 64 28 76 38 11 11 22 18 24 17 1 -2 3 -21 4
-43z m-2853 -183 c11 -24 64 -65 86 -66 10 0 134 -203 161 -262 8 -17 18 -33
22 -35 5 -1 16 -19 25 -38 22 -43 54 -98 125 -213 30 -49 52 -91 50 -94 -9 -9
-44 16 -62 44 -10 15 -24 35 -32 43 -8 8 -59 80 -114 159 -100 145 -118 168
-187 250 -60 72 -113 121 -185 171 -37 27 -63 51 -57 55 5 3 13 4 18 1 4 -2
23 -1 42 3 72 14 95 10 108 -18z m4871 -68 c21 -41 59 -73 113 -96 29 -12 35
-20 36 -48 0 -19 3 -45 6 -59 6 -31 13 -91 22 -173 3 -34 8 -65 11 -69 2 -5
-6 -12 -19 -17 -46 -19 -63 -24 -70 -23 -4 1 -31 -3 -60 -8 -29 -5 -66 -12
-83 -15 -16 -2 -41 -7 -55 -10 -55 -11 -76 -14 -110 -19 -36 -6 -76 -13 -120
-21 -86 -16 -98 -16 -104 2 -9 24 -52 73 -66 73 -24 0 -19 31 20 111 38 78 44
85 81 97 55 17 105 67 127 125 16 45 23 51 132 117 63 38 116 69 117 69 2 1
11 -16 22 -36z m-1417 -63 c23 -34 34 -41 152 -95 l59 -26 -41 -39 c-31 -28
-47 -55 -63 -103 -12 -36 -30 -75 -40 -86 -11 -11 -19 -23 -19 -26 0 -7 -39
-63 -57 -83 -7 -7 -13 -17 -13 -22 0 -5 -6 -15 -13 -22 -7 -7 -36 -47 -64 -89
-42 -62 -58 -77 -91 -88 -22 -8 -51 -24 -65 -37 l-25 -23 -22 67 c-21 63 -22
67 -5 77 87 51 116 153 64 227 -29 42 -47 55 -81 63 -16 4 -52 32 -80 62 -29
31 -59 62 -66 70 -12 11 -10 16 10 33 12 11 29 19 36 20 7 0 10 5 7 10 -3 6
-2 10 3 10 20 0 55 63 61 111 1 3 11 5 24 6 30 0 212 15 214 17 1 1 22 1 47 1
40 0 47 -4 68 -35z m-722 -87 c1 -15 75 -61 115 -72 30 -8 55 -28 100 -77 57
-63 70 -84 53 -84 -19 0 -68 -68 -68 -94 0 -8 -10 -17 -22 -21 -22 -6 -41 -13
-90 -35 -52 -22 -144 -54 -150 -52 -5 1 -8 -2 -8 -8 0 -5 -6 -10 -14 -10 -8 0
-27 -5 -43 -12 -15 -6 -30 -12 -33 -13 -3 -1 -22 -9 -44 -18 -21 -9 -42 -17
-47 -17 -5 0 -28 -9 -52 -19 -43 -20 -155 -64 -322 -127 -89 -33 -100 -35
-172 -29 -108 10 -302 9 -343 -1 -19 -4 -37 -8 -40 -9 -3 0 -28 -9 -57 -18
-66 -23 -88 -23 -158 -3 -54 16 -79 19 -159 21 -50 1 -91 3 -91 4 0 2 -13 4
-30 6 -16 3 -82 21 -145 42 l-114 38 -19 78 -19 78 35 35 c35 35 36 35 77 23
23 -7 44 -20 47 -28 21 -75 75 -137 138 -158 29 -9 104 -11 135 -2 39 11 119
93 127 130 6 33 -1 32 178 29 156 -3 794 -2 819 1 33 4 103 80 117 129 12 41
27 64 69 110 8 8 42 49 75 90 33 41 73 89 89 107 29 33 30 33 48 13 10 -10 18
-23 18 -27z m-1455 -40 c11 -21 25 -44 32 -50 6 -7 13 -17 15 -21 5 -14 99
-83 128 -94 44 -18 94 -29 150 -33 30 -3 80 -7 110 -9 30 -3 89 -7 130 -11 41
-3 100 -8 130 -11 30 -3 63 -5 73 -5 13 0 57 -62 57 -81 0 -3 -241 -2 -420 2
-30 0 -77 1 -105 1 -27 0 -94 1 -148 1 l-97 1 -21 46 c-22 51 -57 86 -107 108
-18 7 -31 17 -28 22 5 7 26 57 31 71 1 3 5 13 8 23 4 9 10 25 14 35 6 16 9 24
12 37 3 14 19 1 36 -32z m2305 -292 c0 -15 54 -69 87 -85 17 -9 47 -18 65 -21
18 -2 69 -9 113 -15 44 -6 94 -14 110 -17 17 -3 39 -6 50 -7 116 -13 133 -18
139 -40 7 -27 71 -98 80 -89 10 11 7 -25 -6 -52 -6 -14 -15 -25 -19 -25 -4 0
-10 -12 -14 -27 -3 -16 -16 -42 -27 -59 l-21 -31 -58 28 c-31 15 -81 31 -111
35 -29 3 -64 8 -78 10 -38 5 -109 -14 -143 -38 -36 -26 -71 -99 -76 -161 -1
-5 -20 13 -43 39 -24 26 -60 64 -80 85 -21 20 -47 61 -58 91 -18 49 -41 76
-93 111 -17 12 -16 14 7 47 14 19 30 41 36 48 6 6 8 12 5 12 -5 0 17 29 43 55
6 8 12 17 12 20 0 4 14 27 32 51 30 41 48 55 48 35z m-609 -143 c11 -15 24
-27 27 -26 19 4 61 -28 68 -51 4 -14 8 -29 9 -33 2 -5 4 -10 5 -13 1 -3 4 -9
5 -15 1 -5 4 -12 5 -15 1 -3 3 -8 4 -12 1 -5 10 -31 19 -60 10 -28 20 -63 23
-78 3 -15 11 -43 19 -61 8 -19 13 -34 12 -35 -1 0 -56 -2 -122 -3 -111 -1
-127 1 -211 30 -82 28 -172 53 -199 56 -5 0 -21 5 -34 10 -14 5 -45 11 -70 14
-25 3 -48 7 -51 9 -6 4 -76 15 -125 20 -16 2 -30 5 -30 5 0 1 -13 4 -30 5 -55
5 -107 14 -111 18 -2 2 67 31 154 65 86 34 171 67 187 73 17 7 35 13 40 15 6
1 37 14 70 28 32 13 63 22 67 20 4 -3 8 -1 8 4 0 8 35 23 62 26 3 1 10 4 14 9
4 4 15 7 25 7 9 0 19 3 21 8 2 4 23 14 48 23 42 16 46 16 57 0 7 -9 22 -28 34
-43z m1897 30 c-18 -15 -39 -28 -45 -28 -7 0 -13 -4 -13 -8 0 -21 -370 -242
-405 -242 -8 0 -15 -4 -15 -9 0 -5 -11 -12 -25 -15 -13 -3 -37 -11 -52 -17
-15 -6 -28 -10 -28 -9 0 1 -12 -3 -27 -9 -35 -13 -36 -3 -5 47 13 20 31 53 40
73 11 24 28 41 49 49 39 16 89 60 82 72 -3 4 0 8 5 8 6 0 11 6 11 14 0 19 13
27 53 32 18 3 55 9 82 14 73 14 172 30 220 36 11 1 20 3 20 4 0 1 8 3 18 5 11
2 20 5 22 7 2 2 14 4 25 4 19 0 18 -4 -12 -28z m-1319 -462 c20 -22 55 -59 77
-83 27 -28 46 -60 53 -90 7 -25 27 -75 45 -112 19 -37 37 -82 40 -101 17 -98
19 -119 18 -165 -1 -59 -4 -73 -19 -100 -15 -25 -20 -20 -27 30 -8 49 -25 95
-37 95 -5 0 -9 6 -9 14 0 11 -110 122 -166 166 -98 78 -297 217 -330 231 -19
8 -124 71 -124 74 0 2 62 3 138 3 79 0 150 5 167 12 40 15 97 59 90 70 -8 13
19 18 34 6 8 -6 31 -29 50 -50z"/>
</g>
</svg>
